<svg width="338" height="180" viewBox="0 0 338 180" fill="none" xmlns="http://www.w3.org/2000/svg">
<path d="M13.632 166.48L5.04 140.944C4.496 139.248 4.064 137.92 3.744 136.96C3.424 135.968 3.184 135.12 3.024 134.416C2.576 134.448 2.128 134.464 1.68 134.464C1.232 134.464 0.784 134.48 0.336 134.512V132.4H12V133.984C10.144 134.08 9.024 134.496 8.64 135.232C8.288 135.968 8.368 137.296 8.88 139.216C9.424 141.328 10.016 143.232 10.656 144.928C11.296 146.624 11.92 148.448 12.528 150.4C12.976 151.84 13.424 153.168 13.872 154.384C14.352 155.6 14.832 156.96 15.312 158.464H15.408C15.568 157.92 15.728 157.344 15.888 156.736C16.08 156.128 16.272 155.536 16.464 154.96C16.656 154.384 16.832 153.856 16.992 153.376C17.152 152.864 17.28 152.448 17.376 152.128C18.272 149.28 19.152 146.528 20.016 143.872C20.912 141.184 21.696 138.832 22.368 136.816C23.04 134.768 23.504 133.264 23.76 132.304H25.296C25.584 133.36 26 134.704 26.544 136.336C27.088 137.968 27.664 139.68 28.272 141.472C28.88 143.264 29.44 144.96 29.952 146.56C30.496 148.16 30.928 149.44 31.248 150.4C31.696 151.84 32.16 153.264 32.64 154.672C33.152 156.08 33.616 157.536 34.032 159.04H34.176C34.464 158.112 34.768 157.12 35.088 156.064C35.44 155.008 35.792 153.936 36.144 152.848C36.976 150.48 37.648 148.496 38.16 146.896C38.704 145.296 39.136 143.968 39.456 142.912C39.808 141.856 40.096 140.944 40.32 140.176C40.576 139.376 40.832 138.608 41.088 137.872C41.28 137.328 41.488 136.752 41.712 136.144C41.968 135.504 42.256 134.912 42.576 134.368C41.936 134.4 41.296 134.432 40.656 134.464C40.016 134.464 39.376 134.48 38.736 134.512V132.4H48.48V133.984C47.392 134.112 46.528 134.352 45.888 134.704C45.28 135.056 44.736 135.712 44.256 136.672C43.776 137.632 43.2 139.104 42.528 141.088C41.056 145.44 39.616 149.728 38.208 153.952C36.832 158.144 35.392 162.32 33.888 166.48H32.448L25.152 145.648C24.864 144.816 24.576 144 24.288 143.2C24.032 142.4 23.76 141.6 23.472 140.8C23.216 141.6 22.944 142.4 22.656 143.2C22.4 144 22.144 144.8 21.888 145.6L15.024 166.48H13.632ZM59.6186 166.768C57.4106 166.768 55.4106 166.256 53.6186 165.232C51.8586 164.176 50.4666 162.704 49.4426 160.816C48.4186 158.896 47.9066 156.64 47.9066 154.048C47.9066 151.808 48.4026 149.712 49.3946 147.76C50.4186 145.808 51.8426 144.24 53.6666 143.056C55.4906 141.84 57.6026 141.232 60.0026 141.232C61.3466 141.232 62.5946 141.456 63.7466 141.904C64.9306 142.32 65.9706 142.976 66.8666 143.872C67.7626 144.736 68.4666 145.84 68.9786 147.184C69.4906 148.496 69.7466 150.048 69.7466 151.84L52.8506 152.128C52.8506 154.56 53.1066 156.704 53.6186 158.56C54.1626 160.384 55.0266 161.808 56.2106 162.832C57.3946 163.824 58.9146 164.32 60.7706 164.32C61.7626 164.32 62.7706 164.144 63.7946 163.792C64.8506 163.44 65.8266 162.96 66.7226 162.352C67.6186 161.744 68.3386 161.072 68.8826 160.336L70.0346 161.296C69.1706 162.64 68.1306 163.712 66.9146 164.512C65.6986 165.312 64.4506 165.888 63.1706 166.24C61.8906 166.592 60.7066 166.768 59.6186 166.768ZM52.9946 150.112H65.2346C65.2346 148.96 65.0586 147.856 64.7066 146.8C64.3866 145.712 63.8426 144.832 63.0746 144.16C62.3066 143.456 61.2986 143.104 60.0506 143.104C58.1946 143.104 56.6426 143.664 55.3946 144.784C54.1786 145.872 53.3786 147.648 52.9946 150.112ZM84.0559 166.768C82.1039 166.768 80.3439 166.288 78.7759 165.328C77.2079 164.336 75.9599 162.928 75.0319 161.104C74.1359 159.28 73.6879 157.136 73.6879 154.672C73.6879 152.048 74.2159 149.728 75.2719 147.712C76.3279 145.696 77.7839 144.112 79.6399 142.96C81.5279 141.808 83.6559 141.232 86.0239 141.232C87.0799 141.232 88.1199 141.376 89.1439 141.664C90.1999 141.92 91.0319 142.224 91.6399 142.576V136C91.6399 135.488 91.6399 135.008 91.6399 134.56C91.6719 134.08 91.7199 133.52 91.7839 132.88C91.2079 132.912 90.6319 132.944 90.0559 132.976C89.5119 133.008 88.9519 133.04 88.3759 133.072V131.056C89.7839 131.056 90.8719 130.992 91.6399 130.864C92.4079 130.736 92.9839 130.576 93.3679 130.384C93.7839 130.192 94.1039 129.984 94.3279 129.76H95.7199V160.912C95.7199 161.424 95.7039 161.936 95.6719 162.448C95.6399 162.96 95.5919 163.536 95.5279 164.176C96.1039 164.144 96.6639 164.112 97.2079 164.08C97.7839 164.048 98.3599 164.016 98.9359 163.984V166H92.0719C91.9759 165.52 91.8959 165.088 91.8319 164.704C91.7999 164.288 91.7679 163.888 91.7359 163.504C90.8399 164.496 89.7359 165.296 88.4239 165.904C87.1119 166.48 85.6559 166.768 84.0559 166.768ZM85.7839 164.416C86.8399 164.416 87.8959 164.112 88.9519 163.504C90.0399 162.896 90.9359 162.144 91.6399 161.248C91.6079 160.864 91.5919 160.464 91.5919 160.048C91.5919 159.6 91.5919 159.12 91.5919 158.608L91.6399 144.784C90.8719 144.208 90.0239 143.792 89.0959 143.536C88.1999 143.248 87.2719 143.104 86.3119 143.104C84.7119 143.104 83.3199 143.568 82.1359 144.496C80.9519 145.424 80.0559 146.72 79.4479 148.384C78.8399 150.048 78.5679 152 78.6319 154.24C78.6959 156.192 78.9999 157.936 79.5439 159.472C80.1199 161.008 80.9199 162.224 81.9439 163.12C82.9999 163.984 84.2799 164.416 85.7839 164.416ZM112.743 166.768C110.791 166.768 109.031 166.288 107.463 165.328C105.895 164.336 104.647 162.928 103.719 161.104C102.823 159.28 102.375 157.136 102.375 154.672C102.375 152.048 102.903 149.728 103.959 147.712C105.015 145.696 106.471 144.112 108.327 142.96C110.215 141.808 112.343 141.232 114.711 141.232C115.767 141.232 116.807 141.376 117.831 141.664C118.887 141.92 119.719 142.224 120.327 142.576V136C120.327 135.488 120.327 135.008 120.327 134.56C120.359 134.08 120.407 133.52 120.471 132.88C119.895 132.912 119.319 132.944 118.743 132.976C118.199 133.008 117.639 133.04 117.063 133.072V131.056C118.471 131.056 119.559 130.992 120.327 130.864C121.095 130.736 121.671 130.576 122.055 130.384C122.471 130.192 122.791 129.984 123.015 129.76H124.407V160.912C124.407 161.424 124.391 161.936 124.359 162.448C124.327 162.96 124.279 163.536 124.215 164.176C124.791 164.144 125.351 164.112 125.895 164.08C126.471 164.048 127.047 164.016 127.623 163.984V166H120.759C120.663 165.52 120.583 165.088 120.519 164.704C120.487 164.288 120.455 163.888 120.423 163.504C119.527 164.496 118.423 165.296 117.111 165.904C115.799 166.48 114.343 166.768 112.743 166.768ZM114.471 164.416C115.527 164.416 116.583 164.112 117.639 163.504C118.727 162.896 119.623 162.144 120.327 161.248C120.295 160.864 120.279 160.464 120.279 160.048C120.279 159.6 120.279 159.12 120.279 158.608L120.327 144.784C119.559 144.208 118.711 143.792 117.783 143.536C116.887 143.248 115.959 143.104 114.999 143.104C113.399 143.104 112.007 143.568 110.823 144.496C109.639 145.424 108.743 146.72 108.135 148.384C107.527 150.048 107.255 152 107.319 154.24C107.383 156.192 107.687 157.936 108.231 159.472C108.807 161.008 109.607 162.224 110.631 163.12C111.687 163.984 112.967 164.416 114.471 164.416ZM131.159 164.56C132.151 164.56 132.839 164.32 133.223 163.84C133.607 163.328 133.831 162.64 133.895 161.776C133.959 160.88 133.991 159.856 133.991 158.704V147.76C133.991 147.248 134.007 146.768 134.039 146.32C134.071 145.84 134.119 145.28 134.183 144.64C133.607 144.672 133.031 144.704 132.455 144.736C131.911 144.768 131.351 144.8 130.775 144.832V142.816C132.183 142.816 133.271 142.752 134.039 142.624C134.807 142.496 135.383 142.336 135.767 142.144C136.183 141.952 136.503 141.744 136.727 141.52H138.119V160.912C138.119 161.552 138.103 162.128 138.071 162.64C138.071 163.12 138.023 163.632 137.927 164.176C138.439 164.144 138.935 164.128 139.415 164.128C139.927 164.096 140.439 164.064 140.951 164.032V166H131.159V164.56ZM135.815 136.768C135.143 136.768 134.551 136.496 134.039 135.952C133.527 135.408 133.271 134.736 133.271 133.936C133.271 133.136 133.527 132.464 134.039 131.92C134.583 131.344 135.191 131.056 135.863 131.056C136.599 131.056 137.207 131.344 137.687 131.92C138.199 132.464 138.455 133.136 138.455 133.936C138.455 134.736 138.183 135.408 137.639 135.952C137.127 136.496 136.519 136.768 135.815 136.768ZM144.659 166V164.56C145.651 164.56 146.339 164.32 146.723 163.84C147.107 163.328 147.331 162.64 147.395 161.776C147.459 160.88 147.491 159.856 147.491 158.704L147.539 147.76C147.539 147.248 147.539 146.736 147.539 146.224C147.571 145.712 147.635 145.184 147.731 144.64C147.155 144.672 146.579 144.704 146.003 144.736C145.459 144.768 144.899 144.8 144.323 144.832V142.816C145.731 142.816 146.787 142.752 147.491 142.624C148.227 142.496 148.771 142.336 149.123 142.144C149.475 141.952 149.763 141.744 149.987 141.52H151.379C151.411 141.744 151.427 142 151.427 142.288C151.459 142.576 151.491 142.896 151.523 143.248C151.555 143.6 151.571 144 151.571 144.448C152.275 143.84 153.043 143.296 153.875 142.816C154.739 142.336 155.635 141.952 156.563 141.664C157.523 141.376 158.467 141.232 159.395 141.232C162.179 141.232 164.211 142.112 165.491 143.872C166.771 145.6 167.411 148.304 167.411 151.984V160.912C167.411 161.552 167.395 162.128 167.363 162.64C167.363 163.12 167.315 163.632 167.219 164.176C167.731 164.144 168.227 164.128 168.707 164.128C169.219 164.096 169.731 164.064 170.243 164.032V166H160.451V164.56C161.443 164.56 162.131 164.32 162.515 163.84C162.899 163.328 163.123 162.64 163.187 161.776C163.251 160.88 163.283 159.856 163.283 158.704V151.984C163.251 149.232 162.787 147.152 161.891 145.744C161.027 144.336 159.651 143.648 157.763 143.68C156.611 143.712 155.475 144.016 154.355 144.592C153.267 145.168 152.355 145.904 151.619 146.8C151.651 147.056 151.667 147.344 151.667 147.664C151.667 147.984 151.667 148.32 151.667 148.672L151.619 160.912C151.619 161.552 151.603 162.128 151.571 162.64C151.571 163.12 151.523 163.632 151.427 164.176C151.939 164.144 152.435 164.128 152.915 164.128C153.427 164.096 153.939 164.064 154.451 164.032V166H144.659ZM185.383 179.008C182.503 179.008 180.183 178.688 178.423 178.048C176.663 177.408 175.383 176.592 174.583 175.6C173.783 174.608 173.383 173.584 173.383 172.528C173.383 171.536 173.607 170.656 174.055 169.888C174.535 169.152 175.111 168.512 175.783 167.968C176.487 167.424 177.159 167.024 177.799 166.768C176.775 166.416 175.959 165.952 175.351 165.376C174.775 164.768 174.487 163.968 174.487 162.976C174.487 161.856 174.935 160.816 175.831 159.856C176.727 158.864 177.879 158.256 179.287 158.032C177.815 157.328 176.631 156.352 175.735 155.104C174.871 153.856 174.439 152.4 174.439 150.736C174.439 148.816 174.935 147.152 175.927 145.744C176.919 144.304 178.183 143.2 179.719 142.432C181.287 141.632 182.903 141.232 184.567 141.232C185.623 141.232 186.679 141.392 187.735 141.712C188.791 142 189.767 142.432 190.663 143.008C190.983 142.112 191.431 141.312 192.007 140.608C192.615 139.904 193.303 139.36 194.071 138.976C194.839 138.56 195.639 138.352 196.471 138.352C197.303 138.352 197.927 138.576 198.343 139.024C198.791 139.44 199.015 140.016 199.015 140.752C199.015 140.976 198.951 141.248 198.823 141.568C198.695 141.888 198.471 142.16 198.151 142.384C197.863 142.608 197.463 142.72 196.951 142.72C196.407 142.72 195.959 142.56 195.607 142.24C195.255 141.92 195.031 141.52 194.935 141.04C194.135 141.168 193.511 141.552 193.063 142.192C192.615 142.8 192.311 143.472 192.151 144.208C192.919 144.912 193.527 145.76 193.975 146.752C194.455 147.744 194.695 148.8 194.695 149.92C194.695 151.712 194.215 153.312 193.255 154.72C192.327 156.128 191.095 157.232 189.559 158.032C188.023 158.8 186.359 159.184 184.567 159.184C183.959 159.184 183.431 159.152 182.983 159.088C182.535 158.992 181.991 158.944 181.351 158.944C180.167 158.944 179.207 159.232 178.471 159.808C177.735 160.384 177.479 161.072 177.703 161.872C177.959 162.64 178.743 163.136 180.055 163.36C181.367 163.552 183.127 163.696 185.335 163.792C187.799 163.888 189.911 164.176 191.671 164.656C193.431 165.136 194.775 165.872 195.703 166.864C196.663 167.888 197.143 169.264 197.143 170.992C197.143 172.272 196.791 173.408 196.087 174.4C195.415 175.424 194.503 176.272 193.351 176.944C192.231 177.616 190.967 178.128 189.559 178.48C188.183 178.832 186.791 179.008 185.383 179.008ZM185.335 177.136C188.087 177.136 190.231 176.624 191.767 175.6C193.303 174.576 194.071 173.376 194.071 172C194.071 170.816 193.671 169.904 192.871 169.264C192.071 168.656 190.983 168.224 189.607 167.968C188.231 167.744 186.647 167.616 184.855 167.584C183.991 167.552 183.143 167.504 182.311 167.44C181.479 167.408 180.679 167.328 179.911 167.2C179.047 167.776 178.375 168.48 177.895 169.312C177.415 170.144 177.175 171.024 177.175 171.952C177.175 173.52 177.911 174.768 179.383 175.696C180.887 176.656 182.871 177.136 185.335 177.136ZM184.711 157.456C185.895 157.456 186.871 157.168 187.639 156.592C188.439 156.016 189.031 155.232 189.415 154.24C189.831 153.248 190.039 152.128 190.039 150.88C190.039 149.472 189.831 148.16 189.415 146.944C188.999 145.728 188.375 144.752 187.543 144.016C186.743 143.28 185.719 142.912 184.471 142.912C182.743 142.912 181.399 143.568 180.439 144.88C179.511 146.16 179.047 147.76 179.047 149.68C179.047 151.216 179.271 152.576 179.719 153.76C180.167 154.912 180.807 155.824 181.639 156.496C182.503 157.136 183.527 157.456 184.711 157.456ZM211.242 166.768C209.834 166.768 208.458 166.592 207.114 166.24C205.77 165.92 204.554 165.392 203.466 164.656C202.41 163.888 201.562 162.912 200.922 161.728C200.282 160.512 199.962 159.056 199.962 157.36C199.962 155.28 200.634 153.44 201.978 151.84C203.354 150.24 205.194 148.944 207.498 147.952C206.666 146.864 205.978 145.856 205.434 144.928C204.89 143.968 204.49 143.024 204.234 142.096C203.978 141.136 203.85 140.16 203.85 139.168C203.882 136.864 204.73 135.04 206.394 133.696C208.058 132.32 210.17 131.632 212.73 131.632C214.362 131.632 215.77 131.936 216.954 132.544C218.17 133.12 219.098 133.92 219.738 134.944C220.41 135.936 220.746 137.072 220.746 138.352C220.746 139.536 220.49 140.672 219.978 141.76C219.466 142.848 218.634 143.904 217.482 144.928C216.33 145.92 214.794 146.912 212.874 147.904C213.738 148.8 214.682 149.792 215.706 150.88C216.762 151.968 217.818 153.04 218.874 154.096C219.93 155.12 220.89 156.048 221.754 156.88C221.914 156.304 222.026 155.76 222.09 155.248C222.186 154.704 222.234 154.224 222.234 153.808C222.234 153.072 222.122 152.352 221.898 151.648C221.706 150.912 221.338 150.304 220.794 149.824C220.282 149.312 219.546 149.04 218.586 149.008V147.424H226.986V149.392L223.002 149.2C223.514 149.616 223.882 150.16 224.106 150.832C224.33 151.504 224.458 152.288 224.49 153.184C224.522 153.792 224.458 154.576 224.298 155.536C224.17 156.464 223.914 157.44 223.53 158.464C223.882 158.784 224.25 159.136 224.634 159.52C225.05 159.872 225.482 160.24 225.93 160.624C227.37 161.904 228.602 162.864 229.626 163.504C230.682 164.112 231.466 164.416 231.978 164.416V166H227.514C227.226 166 226.57 165.712 225.546 165.136C224.554 164.528 223.226 163.488 221.562 162.016C220.538 163.328 219.178 164.448 217.482 165.376C215.818 166.304 213.738 166.768 211.242 166.768ZM211.818 164.368C213.834 164.432 215.498 164.112 216.81 163.408C218.154 162.672 219.226 161.76 220.026 160.672C219.802 160.448 219.578 160.24 219.354 160.048C219.13 159.824 218.89 159.6 218.634 159.376C216.49 157.264 214.586 155.392 212.922 153.76C211.29 152.128 209.898 150.656 208.746 149.344C207.722 149.952 206.922 150.704 206.346 151.6C205.77 152.496 205.354 153.392 205.098 154.288C204.874 155.184 204.762 155.968 204.762 156.64C204.762 158.4 205.098 159.84 205.77 160.96C206.474 162.08 207.354 162.912 208.41 163.456C209.498 164 210.634 164.304 211.818 164.368ZM211.818 146.752C213.61 145.568 214.938 144.256 215.802 142.816C216.666 141.344 217.098 139.904 217.098 138.496C217.098 136.96 216.698 135.696 215.898 134.704C215.098 133.68 213.962 133.168 212.49 133.168C211.178 133.168 210.074 133.664 209.178 134.656C208.314 135.616 207.882 136.992 207.882 138.784C207.882 140.16 208.25 141.52 208.986 142.864C209.754 144.208 210.698 145.504 211.818 146.752ZM260.793 143.104C260.473 140.096 259.417 137.76 257.625 136.096C255.865 134.432 253.593 133.6 250.809 133.6C249.113 133.6 247.513 133.968 246.009 134.704C244.537 135.408 243.241 136.432 242.121 137.776C241.001 139.12 240.121 140.736 239.481 142.624C238.841 144.512 238.521 146.64 238.521 149.008C238.521 152.016 239.097 154.672 240.249 156.976C241.401 159.28 242.953 161.072 244.905 162.352C246.857 163.632 249.017 164.272 251.385 164.272C253.465 164.272 255.513 163.808 257.529 162.88C259.545 161.92 261.193 160.544 262.473 158.752L263.721 159.76C262.345 161.648 260.857 163.104 259.257 164.128C257.657 165.152 256.057 165.84 254.457 166.192C252.889 166.576 251.449 166.768 250.137 166.768C247.737 166.768 245.529 166.336 243.513 165.472C241.529 164.608 239.801 163.408 238.329 161.872C236.889 160.304 235.769 158.496 234.969 156.448C234.201 154.368 233.817 152.128 233.817 149.728C233.817 147.456 234.153 145.248 234.825 143.104C235.529 140.96 236.569 139.024 237.945 137.296C239.321 135.568 241.049 134.192 243.129 133.168C245.241 132.144 247.689 131.632 250.473 131.632C252.265 131.632 253.961 131.872 255.561 132.352C257.161 132.832 258.697 133.568 260.169 134.56L259.929 131.968H262.521V143.104H260.793ZM279.188 166.768C276.948 166.768 274.916 166.256 273.092 165.232C271.268 164.176 269.812 162.736 268.724 160.912C267.668 159.056 267.14 156.944 267.14 154.576C267.14 152.048 267.668 149.776 268.724 147.76C269.78 145.744 271.22 144.16 273.044 143.008C274.868 141.824 276.916 141.232 279.188 141.232C281.428 141.232 283.46 141.776 285.284 142.864C287.108 143.92 288.564 145.36 289.652 147.184C290.74 149.008 291.284 151.088 291.284 153.424C291.284 155.888 290.74 158.144 289.652 160.192C288.596 162.208 287.156 163.808 285.332 164.992C283.508 166.176 281.46 166.768 279.188 166.768ZM279.572 164.848C281.268 164.848 282.612 164.368 283.604 163.408C284.596 162.448 285.3 161.2 285.716 159.664C286.164 158.128 286.388 156.512 286.388 154.816C286.388 153.376 286.244 151.968 285.956 150.592C285.7 149.184 285.284 147.92 284.708 146.8C284.132 145.648 283.38 144.736 282.452 144.064C281.556 143.392 280.468 143.056 279.188 143.056C277.524 143.056 276.164 143.536 275.108 144.496C274.052 145.456 273.268 146.704 272.756 148.24C272.276 149.776 272.036 151.424 272.036 153.184C272.036 155.168 272.308 157.056 272.852 158.848C273.396 160.608 274.228 162.048 275.348 163.168C276.468 164.288 277.876 164.848 279.572 164.848ZM299.106 166.768C298.37 166.768 297.714 166.48 297.138 165.904C296.594 165.296 296.322 164.56 296.322 163.696C296.322 162.832 296.61 162.096 297.186 161.488C297.762 160.88 298.418 160.576 299.154 160.576C299.954 160.576 300.61 160.88 301.122 161.488C301.666 162.096 301.938 162.832 301.938 163.696C301.938 164.56 301.65 165.296 301.074 165.904C300.498 166.48 299.842 166.768 299.106 166.768Z" fill="#DAC3C8"/>
<g clip-path="url(#clip0_234_26)">
<path d="M167.43 47C172.64 49.1943 177.093 52.8669 180.239 57.564C183.384 62.2612 185.085 67.777 185.13 73.43C185.01 88 172.89 102 156.57 102C140.25 102 128.13 87.94 128 73.43C128.036 67.8837 129.669 62.4652 132.703 57.8224C135.737 53.1796 140.045 49.5092 145.11 47.25C152.224 44.2163 160.25 44.1264 167.43 47Z" stroke="#DEC1BD" stroke-width="8" stroke-miterlimit="10"/>
<path d="M157.43 25.83C160.711 21.2247 165.27 17.6821 170.544 15.64C175.817 13.5979 181.573 13.146 187.1 14.3401C201.3 17.6501 212.29 32.55 208.71 48.47C207.051 55.8627 202.523 62.2935 196.122 66.3479C189.722 70.4024 181.973 71.7485 174.58 70.0901C171.776 69.4442 169.081 68.3931 166.58 66.97C155.49 60.51 152.98 48.5901 152.79 47.6501C152.47 46.0001 150.64 35.46 157.43 25.83Z" stroke="#CDD8DB" stroke-width="8" stroke-miterlimit="10"/>
<path d="M191.67 5L187.44 0H173.9L169.67 5L180.67 16" fill="#DEC1BD"/>
<path d="M167.58 47.21C177.97 51.53 185.39 62.07 185.29 73.54C185.17 88.06 173.05 102 156.72 102" stroke="#DEC1BD" stroke-width="8" stroke-miterlimit="10"/>
<path d="M187.46 59C191.02 66.5007 191.644 75.0622 189.21 83" stroke="white" stroke-width="3" stroke-linejoin="bevel"/>
<path d="M175.97 61C178.285 64.3943 179.592 68.3742 179.74 72.48C179.791 75.0814 179.367 77.6704 178.49 80.12" stroke="white" stroke-width="3" stroke-linejoin="bevel"/>
<path d="M159.83 33.67C157.991 37.4016 157.335 41.6056 157.95 45.72C158.384 48.3039 159.329 50.7754 160.73 52.99" stroke="white" stroke-width="3" stroke-linejoin="bevel"/>
<path d="M147.87 33.84C146.716 38.2955 146.471 42.9378 147.15 47.49C147.589 50.424 148.398 53.2903 149.56 56.02" stroke="white" stroke-width="3" stroke-linejoin="bevel"/>
</g>
<defs>
<clipPath id="clip0_234_26">
<rect width="89.4" height="106" fill="white" transform="translate(124)"/>
</clipPath>
</defs>
</svg>
