<svg width="229" height="158" viewBox="0 0 229 158" fill="none" xmlns="http://www.w3.org/2000/svg">
<g clip-path="url(#clip0_119_4)">
<path d="M132.03 12.44C129.715 11.9027 127.347 11.631 124.97 11.63C120.158 11.6162 115.402 12.6684 111.045 14.7108C106.687 16.7533 102.836 19.7354 99.7684 23.443C96.7004 27.1506 94.4916 31.4916 93.3006 36.1542C92.1096 40.8168 91.966 45.6853 92.88 50.41C93.17 51.9 96.05 65.13 108.58 72.41C110.83 73.6875 113.223 74.6945 115.71 75.41C115.71 75.09 116.12 69.47 115.17 66.95C114.36 66.58 112.89 65.64 112.61 65.47C107.664 62.4695 103.873 57.8897 101.85 52.47C101.53 51.65 101.29 50.92 101.12 50.34C100.86 49.48 100.75 48.93 100.73 48.83C100.463 47.3585 100.333 45.8655 100.34 44.37C100.283 39.2693 101.81 34.2765 104.71 30.08C107.045 26.8548 110.107 24.2246 113.648 22.4022C117.188 20.5799 121.108 19.6165 125.09 19.59C126.813 19.588 128.531 19.7825 130.21 20.17C141.82 22.93 152.02 35.38 148.82 49.6C147.964 53.3773 146.231 56.9 143.76 59.8829C141.29 62.8658 138.152 65.2252 134.6 66.77C133.155 67.3979 131.651 67.8803 130.11 68.21C130.543 70.3019 130.75 72.434 130.73 74.57C130.73 75.14 130.73 75.7 130.67 76.26C133.115 75.8198 135.501 75.0984 137.78 74.11C142.486 72.0597 146.645 68.9314 149.919 64.9778C153.194 61.0241 155.492 56.3559 156.63 51.35C160.47 34.27 149.2 16.45 132.03 12.44Z" fill="white"/>
<path d="M136.69 5L132.46 0H118.92L114.69 5L125.69 16" fill="white"/>
<path d="M87.36 106.29C89.6749 106.827 92.0435 107.099 94.42 107.1C99.2323 107.114 103.988 106.062 108.345 104.019C112.703 101.977 116.554 98.9946 119.622 95.287C122.69 91.5794 124.898 87.2385 126.089 82.5759C127.28 77.9133 127.424 73.0447 126.51 68.32C126.22 66.83 123.34 53.6 110.81 46.32C108.56 45.0425 106.167 44.0355 103.68 43.32C103.68 43.64 103.26 49.25 104.22 51.78C105.03 52.15 106.5 53.09 106.78 53.26C111.726 56.2605 115.517 60.8403 117.54 66.26C117.86 67.08 118.1 67.81 118.27 68.39C118.53 69.25 118.64 69.8 118.66 69.9C118.927 71.3716 119.057 72.8645 119.05 74.36C119.107 79.4607 117.58 84.4536 114.68 88.65C112.345 91.8753 109.283 94.5054 105.742 96.3278C102.202 98.1502 98.2819 99.1136 94.3 99.14C92.5768 99.1421 90.859 98.9475 89.18 98.56C77.61 95.86 67.37 83.41 70.56 69.19C71.4173 65.405 73.1554 61.8757 75.6332 58.8888C78.111 55.9019 81.2585 53.5417 84.82 52C86.2651 51.3721 87.7692 50.8897 89.31 50.56C88.8775 48.4681 88.6696 46.336 88.69 44.2C88.69 43.63 88.69 43.07 88.75 42.51C86.305 42.9502 83.9192 43.6716 81.64 44.66C76.9336 46.7102 72.7753 49.8385 69.5009 53.7922C66.2265 57.7458 63.9276 62.4141 62.79 67.42C58.92 84.46 70.19 102.28 87.36 106.29Z" fill="white"/>
</g>
<path d="M9.972 148.252L3.528 128.956C3.24 128.068 3.012 127.312 2.844 126.688C2.676 126.04 2.568 125.5 2.52 125.068C2.112 125.092 1.728 125.116 1.368 125.14C1.032 125.14 0.708 125.152 0.396 125.176V122.8H10.404V124.78C9.348 124.78 8.628 124.996 8.244 125.428C7.884 125.86 7.872 126.676 8.208 127.876C8.568 129.316 8.952 130.708 9.36 132.052C9.768 133.396 10.164 134.764 10.548 136.156C10.812 137.068 11.052 137.92 11.268 138.712C11.508 139.48 11.76 140.44 12.024 141.592H12.096C12.192 141.232 12.324 140.74 12.492 140.116C12.66 139.492 12.84 138.844 13.032 138.172C13.248 137.5 13.428 136.888 13.572 136.336C13.74 135.76 13.86 135.34 13.932 135.076C14.412 133.54 14.88 132.04 15.336 130.576C15.816 129.088 16.26 127.684 16.668 126.364C17.1 125.02 17.472 123.82 17.784 122.764H20.304C20.616 123.772 20.952 124.852 21.312 126.004C21.672 127.132 22.044 128.296 22.428 129.496C22.812 130.672 23.184 131.836 23.544 132.988C23.904 134.116 24.24 135.16 24.552 136.12C24.84 137.032 25.104 137.956 25.344 138.892C25.608 139.828 25.86 140.776 26.1 141.736H26.172C26.388 140.992 26.604 140.212 26.82 139.396C27.06 138.58 27.312 137.74 27.576 136.876C27.888 135.868 28.164 134.956 28.404 134.14C28.644 133.324 28.86 132.58 29.052 131.908C29.268 131.212 29.46 130.564 29.628 129.964C29.796 129.34 29.964 128.728 30.132 128.128C30.276 127.6 30.456 127.06 30.672 126.508C30.912 125.932 31.188 125.452 31.5 125.068C31.092 125.092 30.6 125.116 30.024 125.14C29.472 125.14 29.028 125.152 28.692 125.176V122.8H36.54V124.78C35.916 124.828 35.364 124.984 34.884 125.248C34.428 125.488 34.008 125.92 33.624 126.544C33.24 127.144 32.868 128.008 32.508 129.136C31.5 132.352 30.492 135.556 29.484 138.748C28.476 141.916 27.456 145.084 26.424 148.252H23.94L19.26 134.464C18.996 133.624 18.756 132.808 18.54 132.016C18.348 131.224 18.144 130.456 17.928 129.712C17.784 130.456 17.616 131.176 17.424 131.872C17.256 132.568 17.064 133.288 16.848 134.032L12.384 148.252H9.972ZM44.323 148.576C42.595 148.576 41.059 148.192 39.715 147.424C38.371 146.632 37.327 145.528 36.583 144.112C35.839 142.672 35.467 140.98 35.467 139.036C35.467 137.356 35.839 135.784 36.583 134.32C37.327 132.856 38.371 131.68 39.715 130.792C41.083 129.88 42.667 129.424 44.467 129.424C45.475 129.424 46.447 129.568 47.383 129.856C48.319 130.144 49.159 130.624 49.903 131.296C50.647 131.968 51.235 132.856 51.667 133.96C52.123 135.064 52.339 136.408 52.315 137.992L40.219 138.208C40.219 139.696 40.387 141.016 40.723 142.168C41.083 143.296 41.659 144.196 42.451 144.868C43.243 145.516 44.287 145.84 45.583 145.84C46.159 145.84 46.771 145.744 47.419 145.552C48.091 145.336 48.751 145.024 49.399 144.616C50.047 144.184 50.623 143.656 51.127 143.032L52.495 144.292C51.703 145.444 50.827 146.332 49.867 146.956C48.907 147.58 47.947 148 46.987 148.216C46.027 148.456 45.139 148.576 44.323 148.576ZM40.399 136.048H47.887C47.863 135.088 47.719 134.284 47.455 133.636C47.215 132.964 46.855 132.46 46.375 132.124C45.895 131.764 45.307 131.584 44.611 131.584C43.435 131.584 42.487 131.98 41.767 132.772C41.071 133.54 40.615 134.632 40.399 136.048ZM62.255 148.576C60.815 148.576 59.531 148.204 58.403 147.46C57.275 146.716 56.387 145.66 55.739 144.292C55.115 142.924 54.803 141.316 54.803 139.468C54.803 137.524 55.187 135.796 55.955 134.284C56.723 132.772 57.779 131.584 59.123 130.72C60.491 129.856 62.063 129.424 63.839 129.424C64.535 129.424 65.183 129.508 65.783 129.676C66.407 129.82 66.947 129.988 67.403 130.18V126.976C67.403 126.616 67.403 126.172 67.403 125.644C67.427 125.116 67.463 124.588 67.511 124.06C67.127 124.084 66.683 124.108 66.179 124.132C65.699 124.156 65.291 124.18 64.955 124.204V121.864C66.059 121.864 66.959 121.816 67.655 121.72C68.351 121.6 68.891 121.456 69.275 121.288C69.683 121.12 69.971 120.964 70.139 120.82H71.795V142.852C71.795 143.212 71.783 143.668 71.759 144.22C71.735 144.748 71.699 145.276 71.651 145.804C72.059 145.756 72.479 145.732 72.911 145.732C73.367 145.708 73.751 145.684 74.063 145.66V148H67.799C67.751 147.712 67.703 147.424 67.655 147.136C67.631 146.824 67.595 146.536 67.547 146.272C66.803 147.064 65.987 147.64 65.099 148C64.211 148.384 63.263 148.576 62.255 148.576ZM63.947 145.804C64.619 145.804 65.267 145.624 65.891 145.264C66.515 144.88 67.019 144.412 67.403 143.86C67.379 143.524 67.367 143.188 67.367 142.852C67.367 142.492 67.367 142.132 67.367 141.772L67.403 132.556C67.043 132.268 66.587 132.052 66.035 131.908C65.483 131.74 64.919 131.656 64.343 131.656C63.215 131.68 62.291 132.04 61.571 132.736C60.875 133.408 60.359 134.296 60.023 135.4C59.711 136.504 59.567 137.704 59.591 139C59.591 140.176 59.747 141.28 60.059 142.312C60.371 143.344 60.839 144.184 61.463 144.832C62.111 145.48 62.939 145.804 63.947 145.804ZM83.7354 148.576C82.2954 148.576 81.0114 148.204 79.8834 147.46C78.7554 146.716 77.8674 145.66 77.2194 144.292C76.5954 142.924 76.2834 141.316 76.2834 139.468C76.2834 137.524 76.6674 135.796 77.4354 134.284C78.2034 132.772 79.2594 131.584 80.6034 130.72C81.9714 129.856 83.5434 129.424 85.3194 129.424C86.0154 129.424 86.6634 129.508 87.2634 129.676C87.8874 129.82 88.4274 129.988 88.8834 130.18V126.976C88.8834 126.616 88.8834 126.172 88.8834 125.644C88.9074 125.116 88.9434 124.588 88.9914 124.06C88.6074 124.084 88.1634 124.108 87.6594 124.132C87.1794 124.156 86.7714 124.18 86.4354 124.204V121.864C87.5394 121.864 88.4394 121.816 89.1354 121.72C89.8314 121.6 90.3714 121.456 90.7554 121.288C91.1634 121.12 91.4514 120.964 91.6194 120.82H93.2754V142.852C93.2754 143.212 93.2634 143.668 93.2394 144.22C93.2154 144.748 93.1794 145.276 93.1314 145.804C93.5394 145.756 93.9594 145.732 94.3914 145.732C94.8474 145.708 95.2314 145.684 95.5434 145.66V148H89.2794C89.2314 147.712 89.1834 147.424 89.1354 147.136C89.1114 146.824 89.0754 146.536 89.0274 146.272C88.2834 147.064 87.4674 147.64 86.5794 148C85.6914 148.384 84.7434 148.576 83.7354 148.576ZM85.4274 145.804C86.0994 145.804 86.7474 145.624 87.3714 145.264C87.9954 144.88 88.4994 144.412 88.8834 143.86C88.8594 143.524 88.8474 143.188 88.8474 142.852C88.8474 142.492 88.8474 142.132 88.8474 141.772L88.8834 132.556C88.5234 132.268 88.0674 132.052 87.5154 131.908C86.9634 131.74 86.3994 131.656 85.8234 131.656C84.6954 131.68 83.7714 132.04 83.0514 132.736C82.3554 133.408 81.8394 134.296 81.5034 135.4C81.1914 136.504 81.0474 137.704 81.0714 139C81.0714 140.176 81.2274 141.28 81.5394 142.312C81.8514 143.344 82.3194 144.184 82.9434 144.832C83.5914 145.48 84.4194 145.804 85.4274 145.804ZM98.0159 146.092C98.7119 146.092 99.2039 145.948 99.4919 145.66C99.7799 145.348 99.9599 144.916 100.032 144.364C100.104 143.812 100.14 143.188 100.14 142.492V135.76C100.14 135.352 100.152 134.908 100.176 134.428C100.2 133.924 100.236 133.408 100.284 132.88C99.8759 132.904 99.4319 132.928 98.9519 132.952C98.4719 132.976 98.0759 133 97.7639 133.024V130.684C98.8439 130.684 99.7319 130.636 100.428 130.54C101.148 130.42 101.7 130.276 102.084 130.108C102.492 129.94 102.78 129.784 102.948 129.64H104.568V142.852C104.568 143.236 104.556 143.704 104.532 144.256C104.532 144.784 104.496 145.3 104.424 145.804C104.808 145.756 105.216 145.732 105.648 145.732C106.104 145.708 106.476 145.696 106.764 145.696V148H98.0159V146.092ZM102.156 126.544C101.46 126.544 100.872 126.292 100.392 125.788C99.9119 125.26 99.6719 124.624 99.6719 123.88C99.6719 123.136 99.9119 122.5 100.392 121.972C100.896 121.444 101.484 121.18 102.156 121.18C102.852 121.18 103.428 121.444 103.884 121.972C104.364 122.5 104.604 123.136 104.604 123.88C104.604 124.624 104.376 125.26 103.92 125.788C103.464 126.292 102.876 126.544 102.156 126.544ZM109.231 148V146.092C109.927 146.092 110.419 145.948 110.707 145.66C110.995 145.348 111.175 144.916 111.247 144.364C111.319 143.812 111.355 143.188 111.355 142.492V135.724C111.355 135.292 111.367 134.836 111.391 134.356C111.415 133.876 111.451 133.384 111.499 132.88C111.115 132.904 110.671 132.928 110.167 132.952C109.687 132.976 109.291 133 108.979 133.024V130.684C110.059 130.684 110.947 130.636 111.643 130.54C112.339 130.42 112.879 130.276 113.263 130.108C113.647 129.94 113.923 129.784 114.091 129.64H115.603C115.651 129.904 115.675 130.12 115.675 130.288C115.675 130.456 115.687 130.636 115.711 130.828C115.735 130.996 115.771 131.248 115.819 131.584C116.299 131.176 116.851 130.816 117.475 130.504C118.123 130.168 118.771 129.904 119.419 129.712C120.067 129.52 120.667 129.424 121.219 129.424C123.379 129.424 124.927 130.06 125.863 131.332C126.799 132.604 127.267 134.632 127.267 137.416V142.852C127.267 143.236 127.255 143.704 127.231 144.256C127.231 144.784 127.195 145.3 127.123 145.804C127.531 145.756 127.951 145.732 128.383 145.732C128.815 145.708 129.175 145.696 129.463 145.696V148H120.715V146.092C121.411 146.092 121.903 145.948 122.191 145.66C122.503 145.348 122.695 144.916 122.767 144.364C122.839 143.812 122.875 143.188 122.875 142.492L122.839 137.38C122.839 135.652 122.575 134.368 122.047 133.528C121.543 132.664 120.703 132.232 119.527 132.232C118.831 132.256 118.147 132.424 117.475 132.736C116.803 133.048 116.239 133.444 115.783 133.924C115.807 134.212 115.819 134.512 115.819 134.824C115.819 135.136 115.819 135.448 115.819 135.76L115.783 142.852C115.783 143.236 115.771 143.704 115.747 144.256C115.747 144.784 115.711 145.3 115.639 145.804C116.023 145.756 116.431 145.732 116.863 145.732C117.319 145.708 117.691 145.696 117.979 145.696V148H109.231ZM139.83 157.756C137.718 157.756 136.038 157.528 134.79 157.072C133.566 156.616 132.678 156.016 132.126 155.272C131.598 154.552 131.334 153.796 131.334 153.004C131.334 152.404 131.466 151.84 131.73 151.312C131.994 150.808 132.378 150.328 132.882 149.872C133.386 149.416 133.998 149.056 134.718 148.792C133.806 148.528 133.146 148.132 132.738 147.604C132.33 147.052 132.126 146.428 132.126 145.732C132.126 145.036 132.402 144.304 132.954 143.536C133.53 142.768 134.43 142.228 135.654 141.916C134.622 141.46 133.77 140.788 133.098 139.9C132.45 139.012 132.114 137.956 132.09 136.732C132.066 135.292 132.426 134.02 133.17 132.916C133.938 131.812 134.934 130.96 136.158 130.36C137.382 129.736 138.654 129.424 139.974 129.424C140.646 129.424 141.39 129.52 142.206 129.712C143.022 129.904 143.742 130.204 144.366 130.612C144.606 129.892 144.942 129.232 145.374 128.632C145.806 128.008 146.31 127.504 146.886 127.12C147.486 126.736 148.146 126.544 148.866 126.544C149.61 126.544 150.174 126.736 150.558 127.12C150.942 127.504 151.134 128.02 151.134 128.668C151.134 128.932 151.074 129.22 150.954 129.532C150.834 129.844 150.63 130.108 150.342 130.324C150.054 130.54 149.658 130.648 149.154 130.648C148.77 130.648 148.41 130.516 148.074 130.252C147.762 129.988 147.57 129.664 147.498 129.28C147.09 129.376 146.718 129.676 146.382 130.18C146.07 130.684 145.878 131.164 145.806 131.62C146.454 132.196 146.958 132.88 147.318 133.672C147.678 134.44 147.858 135.268 147.858 136.156C147.858 137.524 147.474 138.748 146.706 139.828C145.962 140.884 144.978 141.712 143.754 142.312C142.554 142.912 141.258 143.212 139.866 143.212C139.506 143.212 139.146 143.2 138.786 143.176C138.426 143.128 138.042 143.104 137.634 143.104C136.986 143.104 136.446 143.236 136.014 143.5C135.606 143.764 135.426 144.112 135.474 144.544C135.546 145.048 135.978 145.384 136.77 145.552C137.562 145.696 138.786 145.816 140.442 145.912C142.29 146.008 143.898 146.236 145.266 146.596C146.634 146.956 147.69 147.52 148.434 148.288C149.178 149.08 149.55 150.16 149.55 151.528C149.55 152.536 149.262 153.424 148.686 154.192C148.11 154.96 147.342 155.608 146.382 156.136C145.446 156.664 144.402 157.06 143.25 157.324C142.122 157.612 140.982 157.756 139.83 157.756ZM140.514 155.632C142.338 155.632 143.73 155.296 144.69 154.624C145.65 153.952 146.13 153.22 146.13 152.428C146.13 151.804 145.902 151.3 145.446 150.916C144.99 150.556 144.342 150.28 143.502 150.088C142.662 149.896 141.618 149.776 140.37 149.728C139.818 149.704 139.206 149.668 138.534 149.62C137.862 149.596 137.25 149.536 136.698 149.44C136.242 149.776 135.882 150.196 135.618 150.7C135.378 151.204 135.258 151.708 135.258 152.212C135.21 153.244 135.666 154.072 136.626 154.696C137.586 155.32 138.882 155.632 140.514 155.632ZM140.01 141.196C140.73 141.196 141.33 140.992 141.81 140.584C142.314 140.152 142.686 139.612 142.926 138.964C143.19 138.292 143.322 137.584 143.322 136.84C143.322 135.928 143.202 135.064 142.962 134.248C142.722 133.408 142.35 132.736 141.846 132.232C141.342 131.704 140.706 131.44 139.938 131.44C138.858 131.44 138.018 131.896 137.418 132.808C136.842 133.696 136.554 134.752 136.554 135.976C136.554 136.912 136.686 137.788 136.95 138.604C137.238 139.396 137.634 140.032 138.138 140.512C138.666 140.968 139.29 141.196 140.01 141.196ZM159.762 148.576C158.73 148.576 157.698 148.444 156.666 148.18C155.658 147.916 154.746 147.52 153.93 146.992C153.114 146.44 152.454 145.732 151.95 144.868C151.47 144.004 151.23 142.972 151.23 141.772C151.23 140.164 151.758 138.748 152.814 137.524C153.87 136.3 155.226 135.364 156.882 134.716C156.09 133.828 155.478 133.012 155.046 132.268C154.638 131.524 154.362 130.816 154.218 130.144C154.074 129.448 154.002 128.752 154.002 128.056C154.026 126.28 154.662 124.864 155.91 123.808C157.158 122.752 158.79 122.224 160.806 122.224C162.054 122.224 163.134 122.476 164.046 122.98C164.982 123.484 165.702 124.144 166.206 124.96C166.71 125.776 166.962 126.676 166.962 127.66C166.962 128.62 166.734 129.532 166.278 130.396C165.822 131.236 165.186 132.028 164.37 132.772C163.554 133.492 162.618 134.152 161.562 134.752C161.826 135.04 162.282 135.52 162.93 136.192C163.578 136.864 164.322 137.608 165.162 138.424C166.002 139.24 166.83 140.032 167.646 140.8C167.742 140.464 167.802 140.128 167.826 139.792C167.874 139.456 167.898 139.132 167.898 138.82C167.898 138.196 167.826 137.668 167.682 137.236C167.538 136.804 167.298 136.468 166.962 136.228C166.65 135.964 166.23 135.82 165.702 135.796V133.888H171.858V136.156L169.518 136.048C169.734 136.336 169.89 136.696 169.986 137.128C170.106 137.536 170.166 137.992 170.166 138.496C170.166 139.12 170.106 139.768 169.986 140.44C169.89 141.112 169.722 141.772 169.482 142.42C169.626 142.54 169.77 142.684 169.914 142.852C170.082 142.996 170.25 143.14 170.418 143.284C171.402 144.124 172.278 144.796 173.046 145.3C173.838 145.78 174.45 146.02 174.882 146.02V148H171.21C171.018 148 170.574 147.808 169.878 147.424C169.182 147.04 168.342 146.44 167.358 145.624C166.494 146.512 165.426 147.232 164.154 147.784C162.882 148.312 161.418 148.576 159.762 148.576ZM160.698 146.272C161.802 146.296 162.774 146.116 163.614 145.732C164.454 145.348 165.162 144.844 165.738 144.22C165.474 143.98 165.21 143.752 164.946 143.536C164.706 143.296 164.454 143.056 164.19 142.816C162.726 141.448 161.502 140.272 160.518 139.288C159.534 138.28 158.658 137.332 157.89 136.444C157.314 136.828 156.87 137.308 156.558 137.884C156.246 138.436 156.018 138.988 155.874 139.54C155.754 140.092 155.694 140.572 155.694 140.98C155.694 142.132 155.91 143.104 156.342 143.896C156.774 144.688 157.362 145.276 158.106 145.66C158.85 146.044 159.714 146.248 160.698 146.272ZM160.194 133.168C161.25 132.424 162.042 131.524 162.57 130.468C163.098 129.388 163.362 128.428 163.362 127.588C163.362 126.628 163.122 125.836 162.642 125.212C162.162 124.588 161.49 124.276 160.626 124.276C159.834 124.276 159.174 124.588 158.646 125.212C158.118 125.812 157.854 126.688 157.854 127.84C157.854 128.68 158.082 129.58 158.538 130.54C158.994 131.5 159.546 132.376 160.194 133.168ZM195.536 130.864C195.248 128.776 194.54 127.192 193.412 126.112C192.284 125.008 190.82 124.456 189.02 124.456C187.748 124.456 186.608 124.744 185.6 125.32C184.616 125.872 183.776 126.64 183.08 127.624C182.408 128.584 181.892 129.712 181.532 131.008C181.172 132.28 180.992 133.648 180.992 135.112C180.992 137.248 181.328 139.132 182 140.764C182.696 142.396 183.656 143.68 184.88 144.616C186.128 145.552 187.58 146.02 189.236 146.02C190.772 146.02 192.284 145.648 193.772 144.904C195.284 144.136 196.532 143.056 197.516 141.664L198.992 142.996C197.864 144.532 196.664 145.708 195.392 146.524C194.12 147.316 192.872 147.856 191.648 148.144C190.448 148.432 189.356 148.576 188.372 148.576C186.524 148.576 184.844 148.252 183.332 147.604C181.844 146.932 180.548 146.02 179.444 144.868C178.364 143.692 177.524 142.336 176.924 140.8C176.348 139.24 176.06 137.56 176.06 135.76C176.06 134.104 176.312 132.472 176.816 130.864C177.344 129.256 178.124 127.804 179.156 126.508C180.212 125.212 181.532 124.18 183.116 123.412C184.7 122.62 186.536 122.224 188.624 122.224C189.68 122.224 190.784 122.392 191.936 122.728C193.088 123.04 194.168 123.508 195.176 124.132L195.032 122.476H197.516V130.864H195.536ZM209.95 148.576C208.246 148.576 206.698 148.204 205.306 147.46C203.914 146.692 202.81 145.624 201.994 144.256C201.202 142.864 200.806 141.244 200.806 139.396C200.806 137.452 201.214 135.724 202.03 134.212C202.846 132.7 203.938 131.524 205.306 130.684C206.698 129.844 208.222 129.424 209.878 129.424C211.582 129.424 213.118 129.808 214.486 130.576C215.854 131.344 216.934 132.412 217.726 133.78C218.542 135.148 218.95 136.768 218.95 138.64C218.95 140.608 218.554 142.348 217.762 143.86C216.994 145.348 215.926 146.512 214.558 147.352C213.214 148.168 211.678 148.576 209.95 148.576ZM210.13 146.38C211.21 146.38 212.038 146.044 212.614 145.372C213.19 144.7 213.586 143.848 213.802 142.816C214.042 141.76 214.162 140.68 214.162 139.576C214.162 138.64 214.078 137.692 213.91 136.732C213.766 135.772 213.526 134.908 213.19 134.14C212.854 133.348 212.41 132.724 211.858 132.268C211.306 131.788 210.634 131.548 209.842 131.548C208.786 131.572 207.946 131.92 207.322 132.592C206.698 133.264 206.242 134.116 205.954 135.148C205.69 136.18 205.558 137.272 205.558 138.424C205.558 139.72 205.714 140.992 206.026 142.24C206.338 143.464 206.83 144.472 207.502 145.264C208.174 146.032 209.05 146.404 210.13 146.38ZM224.468 148.576C223.772 148.576 223.184 148.324 222.704 147.82C222.248 147.292 222.02 146.668 222.02 145.948C222.02 145.204 222.26 144.58 222.74 144.076C223.244 143.548 223.82 143.284 224.468 143.284C225.164 143.284 225.74 143.548 226.196 144.076C226.652 144.58 226.88 145.204 226.88 145.948C226.88 146.668 226.652 147.292 226.196 147.82C225.74 148.324 225.164 148.576 224.468 148.576Z" fill="white"/>
<defs>
<clipPath id="clip0_119_4">
<rect width="95.39" height="107.1" fill="white" transform="translate(62)"/>
</clipPath>
</defs>
</svg>
